<svg xmlns="http://www.w3.org/2000/svg" viewBox="0 0 756.16 492.5">
	<defs>
		<style>
			.fond_bat_berthet{fill:#efefef;}
			.atrium{fill:#fff;}
			.lieu{fill:#209cee;}
			.escaliers{fill:#afafaf;}
			.ecole{fill:#e91f00;}
			.chiffre{fill:#000;}
			.legende{fill:#000;}
			<!-- étage 0 = etage0 (classe) (bien penser à faire disparaître tous les chiffre avec la classe "chiffre" puis faire apparaître le bon avec la classe etageX correspondante)
				lieu 1 = B1 (id)
				école = B0 (id)
			-->
		</style>
	</defs>
	<title>berthet_detail</title>

	<polygon class="fond_bat_berthet" points="143.5 363 717.5 363 717.5 74 627.5 0 576.5 81 574.5 182 143.5 182 143.5 363"/>
	<circle class="atrium" cx="646" cy="260.5" r="39"/>
	<rect class="escaliers" x="508" y="181.5" width="45" height="56"/>
	<rect class="escaliers" x="349" y="181.5" width="23" height="56"/>
	<rect class="escaliers" x="143" y="181.5" width="23" height="56"/>
	<rect class="escaliers" x="938.5" y="252.5" width="23" height="56" transform="translate(1467.22 -508.49) rotate(128.03)"/>
	<rect class="escaliers" y="436.5" width="23" height="56"/>

	<circle class="lieu" id="B1" cx="323.5" cy="322" r="14.5"/>
	<circle class="lieu" id="B2" cx="430.5" cy="264" r="14.5"/>
	<circle class="lieu" id="B3" cx="553.5" cy="238" r="14.5"/>
	<circle class="lieu" id="B4" cx="612.5" cy="236" r="14.5"/>
	<circle class="lieu" id="B5" cx="646.5" cy="141" r="14.5"/>
	<circle class="lieu" id="B6" cx="681.5" cy="121" r="14.5"/>
	<circle class="lieu" id="B7" cx="612.5" cy="93" r="14.5"/>
	<circle class="ecole" id="B0" cx="644.5" cy="221" r="14.5"/>
	
	<path class="legende" d="M334.55,705.76H325V688.63h9.55v1.77H327v5.52h7.1v1.76H327V704h7.56Z" transform="translate(-289 -213.5)"/>
	<path class="legende" d="M346.34,702.26A3.22,3.22,0,0,1,345,705a6.28,6.28,0,0,1-3.75,1,8.15,8.15,0,0,1-4-.81v-1.8a9.64,9.64,0,0,0,2,.74,8.29,8.29,0,0,0,2,.27,4.64,4.64,0,0,0,2.34-.49,1.67,1.67,0,0,0,.17-2.77,10.23,10.23,0,0,0-2.54-1.26,13.76,13.76,0,0,1-2.55-1.17,3.48,3.48,0,0,1-1.12-1.13,3,3,0,0,1-.37-1.51,2.88,2.88,0,0,1,1.28-2.48,6,6,0,0,1,3.5-.91,10.25,10.25,0,0,1,4.05.84l-.69,1.58a9.31,9.31,0,0,0-3.5-.8,4,4,0,0,0-2.09.43,1.34,1.34,0,0,0-.7,1.2,1.46,1.46,0,0,0,.26.88,2.6,2.6,0,0,0,.85.69,19,19,0,0,0,2.25.95,8.41,8.41,0,0,1,3.09,1.68A3,3,0,0,1,346.34,702.26Z" transform="translate(-289 -213.5)"/>
	<path class="legende" d="M354.64,706a5.48,5.48,0,0,1-4.32-1.72,7.06,7.06,0,0,1-1.53-4.86,7.28,7.28,0,0,1,1.55-5,5.59,5.59,0,0,1,4.42-1.76,8.78,8.78,0,0,1,1.85.2,6.1,6.1,0,0,1,1.45.47l-.6,1.65a9.15,9.15,0,0,0-1.41-.43,6.28,6.28,0,0,0-1.35-.17q-3.91,0-3.91,5a5.94,5.94,0,0,0,1,3.63,3.32,3.32,0,0,0,2.83,1.27,8.65,8.65,0,0,0,3.29-.69v1.72A7,7,0,0,1,354.64,706Z" transform="translate(-289 -213.5)"/>
	<path class="legende" d="M368.83,705.76l-.39-1.83h-.09a5.4,5.4,0,0,1-1.92,1.63A5.84,5.84,0,0,1,364,706a4.29,4.29,0,0,1-3-1,3.59,3.59,0,0,1-1.08-2.8q0-3.89,6.22-4.08l2.18-.07v-.8a3.26,3.26,0,0,0-.65-2.23,2.67,2.67,0,0,0-2.08-.72,8.48,8.48,0,0,0-3.63,1l-.6-1.49a9.14,9.14,0,0,1,2.08-.81,9,9,0,0,1,2.27-.29,4.89,4.89,0,0,1,3.4,1,4.26,4.26,0,0,1,1.11,3.27v8.77Zm-4.39-1.37a4,4,0,0,0,2.85-1,3.68,3.68,0,0,0,1-2.79v-1.16l-1.95.08a7.08,7.08,0,0,0-3.35.72,2.17,2.17,0,0,0-1,2,2,2,0,0,0,.64,1.61A2.65,2.65,0,0,0,364.44,704.39Z" transform="translate(-289 -213.5)"/>
	<path class="legende" d="M376.23,705.76h-1.95V687.53h1.95Z" transform="translate(-289 -213.5)"/>
	<path class="legende" d="M380.19,689.44a1.29,1.29,0,0,1,.33-1,1.21,1.21,0,0,1,1.63,0,1.27,1.27,0,0,1,.34,1,1.29,1.29,0,0,1-.34,1,1.19,1.19,0,0,1-1.63,0A1.32,1.32,0,0,1,380.19,689.44Zm2.11,16.32h-1.95V692.92h1.95Z" transform="translate(-289 -213.5)"/>
	<path class="legende" d="M391.85,706a5.9,5.9,0,0,1-4.49-1.73,6.71,6.71,0,0,1-1.65-4.82,7.45,7.45,0,0,1,1.53-4.93,5.08,5.08,0,0,1,4.11-1.83,4.84,4.84,0,0,1,3.82,1.59,6.09,6.09,0,0,1,1.41,4.19v1.23h-8.85a5.09,5.09,0,0,0,1.14,3.43,4,4,0,0,0,3.05,1.17,10.34,10.34,0,0,0,4.1-.87v1.73a10.29,10.29,0,0,1-2,.64A11,11,0,0,1,391.85,706Zm-.53-11.68a3.18,3.18,0,0,0-2.47,1,4.65,4.65,0,0,0-1.08,2.79h6.71a4.28,4.28,0,0,0-.82-2.82A2.89,2.89,0,0,0,391.32,694.32Z" transform="translate(-289 -213.5)"/>
	<path class="legende" d="M405.74,692.69a7.61,7.61,0,0,1,1.54.14l-.27,1.8a6.63,6.63,0,0,0-1.41-.18,3.42,3.42,0,0,0-2.67,1.27,4.61,4.61,0,0,0-1.11,3.15v6.89h-1.95V692.92h1.61l.22,2.38h.09a5.65,5.65,0,0,1,1.72-1.93A3.88,3.88,0,0,1,405.74,692.69Z" transform="translate(-289 -213.5)"/>
	<path class="legende" d="M418,702.26a3.22,3.22,0,0,1-1.34,2.77,6.28,6.28,0,0,1-3.75,1,8.15,8.15,0,0,1-4-.81v-1.8a9.64,9.64,0,0,0,2,.74,8.29,8.29,0,0,0,2,.27,4.64,4.64,0,0,0,2.34-.49,1.67,1.67,0,0,0,.17-2.77,10.23,10.23,0,0,0-2.54-1.26,13.76,13.76,0,0,1-2.55-1.17,3.48,3.48,0,0,1-1.12-1.13,3,3,0,0,1-.37-1.51,2.88,2.88,0,0,1,1.28-2.48,6,6,0,0,1,3.5-.91,10.25,10.25,0,0,1,4.05.84l-.69,1.58a9.31,9.31,0,0,0-3.5-.8,4,4,0,0,0-2.09.43,1.34,1.34,0,0,0-.7,1.2,1.46,1.46,0,0,0,.26.88,2.6,2.6,0,0,0,.85.69,19,19,0,0,0,2.25.95,8.41,8.41,0,0,1,3.09,1.68A3,3,0,0,1,418,702.26Z" transform="translate(-289 -213.5)"/>

	<path class="chiffre etage0" d="M1044.36,249.92q0,7.48-2.45,11.07t-7.55,3.59a8.41,8.41,0,0,1-7.45-3.71q-2.51-3.71-2.51-11,0-7.56,2.44-11.14t7.52-3.58a8.43,8.43,0,0,1,7.47,3.75Q1044.36,242.69,1044.36,249.92Zm-14,0a22.21,22.21,0,0,0,.91,7.53,3.14,3.14,0,0,0,3.06,2.28,3.18,3.18,0,0,0,3-2.3,21.6,21.6,0,0,0,.94-7.5q0-5.25-.95-7.55a3.16,3.16,0,0,0-6.08,0A22.17,22.17,0,0,0,1030.39,249.92Z" transform="translate(-289 -213.5)"/>
	<path class="chiffre etage1" d="M1039.47,308.2h-6V291.67l.06-2.71.1-3q-1.5,1.5-2.09,2l-3.28,2.64-2.91-3.63,9.2-7.32h5Z" transform="translate(-289 -213.5)"/>
	<path class="chiffre etage2" d="M1044.51,357.2h-20V353l7.17-7.25q3.18-3.26,4.16-4.52a9.92,9.92,0,0,0,1.41-2.33,6,6,0,0,0,.43-2.23,3.24,3.24,0,0,0-.95-2.56,3.68,3.68,0,0,0-2.53-.84,7.28,7.28,0,0,0-3.22.76,16.62,16.62,0,0,0-3.26,2.17l-3.28-3.89a21.42,21.42,0,0,1,3.5-2.54,12.85,12.85,0,0,1,3-1.14,15.53,15.53,0,0,1,3.67-.4,10.87,10.87,0,0,1,4.73,1,7.54,7.54,0,0,1,3.18,2.73,7.27,7.27,0,0,1,1.13,4,9.85,9.85,0,0,1-.69,3.7,14.21,14.21,0,0,1-2.15,3.54,52.41,52.41,0,0,1-5.13,5.18l-3.67,3.46v.27h12.44Z" transform="translate(-289 -213.5)"/>
	<path class="chiffre etage3" d="M1043.4,385a6.72,6.72,0,0,1-1.62,4.55,8.4,8.4,0,0,1-4.55,2.58v.12a9.09,9.09,0,0,1,5.23,2.1,5.88,5.88,0,0,1,1.78,4.5,7.63,7.63,0,0,1-3,6.42q-3,2.3-8.54,2.29a20.72,20.72,0,0,1-8.24-1.54v-5.14a18.61,18.61,0,0,0,3.65,1.37,15.37,15.37,0,0,0,3.95.53,7.67,7.67,0,0,0,4.41-1,3.73,3.73,0,0,0,1.43-3.26,3,3,0,0,0-1.64-2.85,12.14,12.14,0,0,0-5.23-.84h-2.17V390.2h2.21a10.26,10.26,0,0,0,4.85-.87,3.14,3.14,0,0,0,1.53-3q0-3.24-4.06-3.24a9.3,9.3,0,0,0-2.86.47,14,14,0,0,0-3.23,1.62l-2.79-4.16a15.52,15.52,0,0,1,9.32-2.81,12,12,0,0,1,7,1.8A5.76,5.76,0,0,1,1043.4,385Z" transform="translate(-289 -213.5)"/>
	<path class="chiffre etage4" d="M1045.16,445.28h-3.44v5.92h-5.9v-5.92h-12.19v-4.2l12.52-18.44h5.57v17.95h3.44Zm-9.34-4.69v-4.84q0-1.21.1-3.52t.16-2.68h-.16a21.77,21.77,0,0,1-1.74,3.13l-5.23,7.91Z" transform="translate(-289 -213.5)"/>
	<path class="chiffre etage5" d="M1036.26,476.52a8.27,8.27,0,0,1,5.93,2.09,7.52,7.52,0,0,1,2.21,5.73,8.33,8.33,0,0,1-2.65,6.63q-2.65,2.32-7.59,2.32a14.87,14.87,0,0,1-6.93-1.39v-4.69a15.61,15.61,0,0,0,6.73,1.67q5,0,5-4.08,0-3.88-5.15-3.88a12.79,12.79,0,0,0-2.06.18,15,15,0,0,0-1.83.4l-2.16-1.16,1-13.1h13.94v4.61h-9.18l-.47,5,.62-.12A12.1,12.1,0,0,1,1036.26,476.52Z" transform="translate(-289 -213.5)"/>
	<path class="chiffre etage6" d="M1026.74,525q0-7.63,3.23-11.36t9.66-3.73a17.53,17.53,0,0,1,3.45.26v4.34a14.08,14.08,0,0,0-3.09-.35,10.62,10.62,0,0,0-4.56.84,5.67,5.67,0,0,0-2.65,2.5,11.46,11.46,0,0,0-1,4.69h.23a6,6,0,0,1,5.57-3,6.9,6.9,0,0,1,5.4,2.16,8.6,8.6,0,0,1,2,6,9,9,0,0,1-2.32,6.51,8.53,8.53,0,0,1-6.43,2.4,9.2,9.2,0,0,1-5-1.32,8.56,8.56,0,0,1-3.27-3.85A14.66,14.66,0,0,1,1026.74,525ZM1036,532a3.22,3.22,0,0,0,2.67-1.17,5.23,5.23,0,0,0,.93-3.33,4.6,4.6,0,0,0-.87-3,3.17,3.17,0,0,0-2.63-1.08,4,4,0,0,0-2.82,1.07,3.29,3.29,0,0,0-1.17,2.5,5.66,5.66,0,0,0,1.1,3.53A3.37,3.37,0,0,0,1036,532Z" transform="translate(-289 -213.5)"/>
	<path class="chiffre etage7" d="M1029,580l9.65-21.09H1026v-4.57h18.44v3.41L1034.74,580Z" transform="translate(-289 -213.5)"/>
</svg>