<?xml version="1.0" encoding="utf-8"?>
<!-- Generator: Adobe Illustrator 21.0.0, SVG Export Plug-In . SVG Version: 6.00 Build 0)  -->
<svg version="1.0" id="Calque_1" xmlns="http://www.w3.org/2000/svg" xmlns:xlink="http://www.w3.org/1999/xlink" x="0px" y="0px"
	 viewBox="0 0 1366 1366" style="enable-background:new 0 0 1366 1366;" xml:space="preserve" height="300px">
<style type="text/css">
	.st0{fill:#F2F2F2;}
	.st1{fill:#0000FF;}
	.st2{fill:#ED1C24;}
	.st3{fill:#E6E6E6;}
	.st4{fill:#FF00FF;}
	.st5{fill:#CCCCCC;}
	.st6{fill:#FFFF00;}
	.st7{fill:#B3B3B3;}
	.st8{fill:#603813;}
	.st9{fill:#999999;}
	.st10{fill:#00FF00;}
	.st11{fill:#808080;}
	.bat7{cursor: pointer;}
</style>
<text x="1300" y="960" style="font-size:80px; font-weight:bold;">0</text>
<text x="1300" y="780" style="font-size:80px; font-weight:bold;">1</text>
<text x="1300" y="610" style="font-size:80px; font-weight:bold;">2</text>
<text x="1300" y="440" style="font-size:80px; font-weight:bold;">3</text>
<text x="1300" y="280" style="font-size:80px; font-weight:bold;">4</text>
<text x="1300" y="100" style="font-size:80px; font-weight:bold;">5</text>
<g id="XMLID_1_CASSIN" class="bat7">
	<g>
		<polygon class="st0" points="83.1,1251.1 83,1247.4 82.7,1247.2 163,1125 883,1137 1060,896 1268.2,901.7 1269,903.8 
			1003.6,1246.2 1003.6,1250.6 84.2,1251.1 		"/>
		<polygon class="st1" points="1003.6,1250.6 1003.6,1246.2 1269,903.8 1273,978.7 1273.7,979.2 1003.6,1337.1 		"/>
		<polygon class="st1" points="1003.6,1250.6 1003.6,1337.1 1002.9,1338 85,1338 84.6,1337.9 83.1,1251.1 84.2,1251.1 		"/>
	</g>
	<g>
	</g>
</g>
<g id="XMLID_2_CASSIN" class="bat7">
	<g>
		<polygon class="st2" points="998.6,1067.6 998.6,1063.2 1264,720.8 1268,795.7 1268.7,796.2 998.6,1154.1 		"/>
		<polygon class="st3" points="998.6,1063.2 998.6,1067.6 79.2,1068.1 78.1,1068.1 78,1064.4 77.7,1064.2 158,942 878,954 1055,713 
			1263.2,718.7 1264,720.8 		"/>
		<polygon class="st2" points="79.2,1068.1 998.6,1067.6 998.6,1154.1 997.9,1155 80,1155 79.6,1154.9 78.1,1068.1 		"/>
	</g>
	<g>
	</g>
</g>
<g id="XMLID_3_CASSIN" class="bat7">
	<g>
		<polygon class="st4" points="993.6,898.6 993.6,894.2 1259,551.8 1263,626.7 1263.7,627.2 993.6,985.1 		"/>
		<polygon class="st5" points="993.6,894.2 993.6,898.6 74.2,899.1 73.1,899.1 73,895.4 72.7,895.2 153,773 873,785 1050,544 
			1258.2,549.7 1259,551.8 		"/>
		<polygon class="st4" points="993.6,898.6 993.6,985.1 992.9,986 75,986 74.6,985.9 73.1,899.1 74.2,899.1 		"/>
	</g>
	<g>
	</g>
</g>
<g id="XMLID_4_CASSIN" class="bat7">
	<g>
		<polygon class="st6" points="988.6,740.6 988.6,736.2 1254,393.8 1258,468.7 1258.7,469.2 988.6,827.1 		"/>
		<polygon class="st7" points="988.6,736.2 988.6,740.6 69.2,741.1 68.1,741.1 68,737.4 67.7,737.2 148,615 868,627 1045,386 
			1253.2,391.7 1254,393.8 		"/>
		<polygon class="st6" points="988.6,740.6 988.6,827.1 987.9,828 70,828 69.6,827.9 68.1,741.1 69.2,741.1 		"/>
	</g>
	<g>
	</g>
</g>
<g id="XMLID_5_CASSIN" class="bat7">
	<g>
		<polygon class="st8" points="976.6,575.6 976.6,571.2 1242,228.8 1246,303.7 1246.7,304.2 976.6,662.1 		"/>
		<polygon class="st9" points="976.6,575.6 57.2,576.1 56,576.1 56,572.4 55.7,572.2 136,450 856,462 1033,221 1241.2,226.7 
			1242,228.8 976.6,571.2 		"/>
		<polygon class="st8" points="57.2,576.1 976.6,575.6 976.6,662.1 975.9,663 58,663 57.6,662.9 56,576.1 		"/>
	</g>
	<g>
	</g>
</g>
<g id="XMLID_6_CASSIN" class="bat7">
	<g>
		<polygon class="st10" points="977.6,386.6 977.6,382.2 1243,39.8 1247,114.7 1247.7,115.2 977.6,473.1 		"/>
		<polygon class="st10" points="977.6,386.6 977.6,473.1 976.9,474 59,474 58.6,473.9 57,387.1 58.2,387.1 		"/>
		<polygon class="st11" points="977.6,382.2 977.6,386.6 58.2,387.1 57,387.1 57,383.4 56.7,383.2 137,261 857,273 1034,32 
			1242.2,37.7 1243,39.8 		"/>
	</g>
	<g>
	</g>
</g>
</svg>
