<?xml version="1.0" encoding="utf-8"?>
<!-- Generator: Adobe Illustrator 16.0.3, SVG Export Plug-In . SVG Version: 6.00 Build 0)  -->
<!DOCTYPE svg PUBLIC "-//W3C//DTD SVG 1.1//EN" "http://www.w3.org/Graphics/SVG/1.1/DTD/svg11.dtd">
<svg version="1.1" id="Calque_1" xmlns="http://www.w3.org/2000/svg" xmlns:xlink="http://www.w3.org/1999/xlink" x="0px" y="0px"
	 viewBox="0 0 612 792" enable-background="new 0 0 612 792" xml:space="preserve" height="300px">
<!--<script xlink:href="https://ajax.googleapis.com/ajax/libs/jquery/3.3.1/jquery.min.js"/>
<script xlink:href="../js/svg.js"/>-->
<style type="text/css">
	.bat7{cursor: pointer;}
</style>
<g>
	<g id="XMLID_5_LECLAIR" class="bat7">
		<g>
			<polygon fill="#E9F5EF" points="590.5,552.78 589.15,554.13 441.3,704.62 440.86,704.21 23.3,705.11 23.3,704.66 143.37,583.25 
				376.79,583.25 408.55,551.04 			"/>
			<polygon fill="#66CCEC" points="589.15,554.13 589.15,595.34 440.86,747.22 440.86,706.01 440.41,705.56 441.3,704.62 			"/>
			<polygon fill="#66CCEC" points="441.3,704.62 440.41,705.56 440.86,706.01 440.86,747.22 23.3,744.98 23.3,705.11 440.86,704.21 
							"/>
		</g>
		<g>
		</g>
	</g>
</g>
<g>
	<g id="XMLID_1_LECLAIR" class="bat7">
		<g>
			<polygon fill="#E2E2E2" points="589.15,459.127 441.303,609.617 440.855,609.214 23.297,610.11 23.297,609.662 143.368,488.248 
				376.788,488.248 408.553,456.035 590.495,457.782 			"/>
			<polygon fill="#FF0000" points="589.15,459.127 589.15,500.345 440.855,652.225 440.855,611.007 440.407,610.559 
				441.303,609.617 			"/>
			<polygon fill="#FF0000" points="440.407,610.559 440.855,611.007 440.855,652.225 23.297,649.984 23.297,610.11 440.855,609.214 
				441.303,609.617 			"/>
		</g>
	</g>
</g>
<g>
	<g id="XMLID_2_LECLAIR" class="bat7">
		<g>
			<polygon fill="#BCBCBC" points="589.15,360.562 441.303,511.053 440.855,510.649 23.297,511.545 23.297,511.098 143.368,389.683 
				376.788,389.683 408.553,357.47 590.495,359.217 			"/>
			<polygon fill="#001FFF" points="589.15,360.562 589.15,401.779 440.855,553.659 440.855,512.441 440.407,511.993 
				441.303,511.053 			"/>
			<polygon fill="#001FFF" points="440.407,511.993 440.855,512.441 440.855,553.659 23.297,551.419 23.297,511.545 
				440.855,510.649 441.303,511.053 			"/>
		</g>
	</g>
</g>
<g>
	<g id="XMLID_3_LECLAIR" class="bat7">
		<g>
			<polygon fill="#00DD00" points="441.303,412.039 589.15,261.548 589.15,302.767 440.855,454.646 440.855,413.428 440.407,412.98 
							"/>
			<polygon fill="#999999" points="589.15,261.548 441.303,412.039 440.855,411.637 23.297,412.532 23.297,412.084 143.368,290.67 
				376.788,290.67 408.553,258.457 590.495,260.204 			"/>
			<polygon fill="#00DD00" points="440.855,413.428 440.855,454.646 23.297,452.406 23.297,412.532 440.855,411.637 
				441.303,412.039 440.407,412.98 			"/>
		</g>
	</g>
</g>
<g>
	<g id="XMLID_4_LECLAIR" class="bat7">
		<g>
			<polygon fill="#E5E500" points="588.255,160.743 588.255,201.961 439.959,353.841 439.959,312.623 439.511,312.175 
				440.407,311.279 			"/>
			<polygon fill="#E5E500" points="22.401,311.727 439.959,310.831 440.407,311.279 439.511,312.175 439.959,312.623 
				439.959,353.841 22.401,351.601 			"/>
			<polygon fill="#7C7C7C" points="407.656,157.651 589.599,159.399 588.255,160.743 440.407,311.279 439.959,310.831 
				22.401,311.727 22.401,311.279 142.472,189.864 375.892,189.864 			"/>
		</g>
	</g>
</g>
</svg>
